<?xml version="1.0" encoding="UTF-8"?><svg id="_레이어_2" xmlns="http://www.w3.org/2000/svg" viewBox="0 0 478.52 536.918"><g id="_레이어_1-2"><rect x="0" y="187.062" width="478.52" height="18.229" style="fill:#003893;"/><rect x="19.611" y="397.926" width="438.548" height="20.272" style="fill:#003893;"/><g><path d="M136.62,164.873h203.187l-101.378-96.676-101.809,96.676Zm61.638-23.362l40.171-40.17,41.112,39.696-81.283,.474Z" style="fill:#003893;"/><polygon points="238.924 0 67.949 165.815 102.017 165.815 237.993 34.999 374.31 164.873 410.268 164.873 238.924 0" style="fill:#003893;"/></g><g><path d="M407.096,349.908l.265-100.161c14.049-8.762,10.194-17.535,10.194-17.535-8.773,10.183-20.317-11.851-20.317-11.851l-26.627,24.508v-26.32h-5.932v140.156c-1.448-3.128-8.112-3.525-8.112-3.525l.352-105.113c-1.338-32.543-23.478-30.466-23.478-30.466-30.791-.633-25.906,35.054-25.906,35.054,21.071-28.005,30.131,.699,30.131,.699v30.114c-18.543-3.85-18.169,17.205-18.169,17.205,1.018,11.18,3.844,12.6,3.844,12.6,4.186-12.98,14.325-6.311,14.325-6.311l.38,43.381c-22.453,8.806-21.715,26.661-21.715,26.661,18.4-14.352,42.709,8.784,42.709,8.784,8.426-11.234,29.828-25.62,29.828-25.62,5.931,26.248,19.545,24.502,19.545,24.502l13.669-25.901c-14.721,4.643-14.985-10.861-14.985-10.861Zm-36.128-100.161l9.797-8.377s3.134,4.869,7.722,8.019v27.674s-14.022,4.213-17.519-2.428v-24.888Zm17.123,104.039s-17.123,13.311-17.123,10.139l-.958-40.639s12.458-5.706,18.626,.209l-.545,30.29Zm-17.48-37.51v-31.513c9.841,3.513,17.877-.342,17.877-.342l.38,31.855c-11.257-4.153-18.257,0-18.257,0Z" style="fill:#003893;"/><path d="M274.281,219.599c-14.038,16.825-17.838,24.91-17.838,24.91,6.554-4.929,10.921,1.729,10.921,1.729,1.708,3.15,10.414,3.508,10.414,3.508v31.529c-21.137,12.612-25.223-4.918-25.223-4.918-19.953-64.777-44.819-56.758-44.819-56.758-16.467-1.052-22.118,18.945-22.118,18.945-2.423,18.213,2.467,17.871,2.467,17.871,9.12-22.784,19.65-13.691,19.65-13.691v48.007c-14.666-2.12-15.14,13.68-15.14,13.68,0,16.83,4.224,14.346,4.224,14.346,1.118-8.454,10.552-5.959,10.552-5.959v42.775c-22.756,4.51-24.535,28.33-24.535,28.33,25.598-17.844,46.614,4.185,46.614,4.185l16.456-22.679-4.235-4.263-2.368,3.162c-9.478-11.235-25.637-10.525-25.637-10.525l1.046-26.595c16.831-14.099,35.368,.711,35.368,.711,18.962,63.714,35.076,58.769,35.076,58.769V249.388c26.595-10.844,18.884-27.305,18.884-27.305-14.192,12.959-29.761-2.484-29.761-2.484Zm-60.613,98.818l-.364-73.231s14.76,5.281,32.604,71.089c0,0-20.994-7.683-32.24,2.142Zm64.11,27.647s-12.628-17.833-20.68-54.611c0,0,11.577,4.566,20.68-1.404v56.015Z" style="fill:#003893;"/><path d="M72.856,238.545c5.948,3.167,16.825,3.481,16.825,3.481,16.781-.656,19.65-20.686,19.65-20.686-7.727,4.571-26.622-3.145-26.622-3.145-23.522-3.134-26.981,23.516-26.981,23.516,14.666-5.986,17.128-3.167,17.128-3.167Z" style="fill:#003893;"/><path d="M132.792,362.167c-42.77-31.849-71.132,21.055-71.132,21.055,37.147-15.437,52.865-.705,52.865-.705,3.145,3.838,7.705,5.27,7.705,5.27,1.768-5.27,17.177-23.863,17.177-23.863l-4.191-3.481-2.423,1.724Z" style="fill:#003893;"/><path d="M75.621,309.985c3.558,39.223-5.226,45.193-5.226,45.193,18.945,1.372,23.835-27.278,23.835-27.278l.76-63.45c-.457-5.248,3.447-13.663,3.447-13.663-19.633,6.708-22.035,25.223-22.035,25.223l-1.101,11.207c-24.541-1.404-14.324,29.057-14.324,29.057,10.866-12.573,14.643-6.29,14.643-6.29Z" style="fill:#003893;"/><path d="M164.663,355.178s-5.986-4.56-14.677-37.499c0,0-5.618-31.116-17.574-33.6l14.049-36.057s13.482,7.33,17.133,.661c0,0,15.09-11.527,11.929-25.939,0,0-3.756,4.929-8.322,3.541,0,0-13.091-1.079-12.414-7.737l-31.832,66.611s-5.629-53.283,4.869-59.248c0,0-19.248,0-23.076,32.928,0,0,5.92,79.531-4.604,83.397,0,0,20.394,6.972,22.811-37.824,0,0,9.836,13.641,14.726,42.731,0,0,6.989,44.471,25.543,39.212,0,0,7.749-18.18,15.118-26.661,0,0-9.836,3.574-13.68-4.516Z" style="fill:#003893;"/></g><g><polygon points="163.595 482.712 174.119 482.712 174.119 534.866 183.195 534.866 183.195 474.633 163.226 474.633 163.595 482.712" style="fill:#003893;"/><path d="M213.668,474.324c-21.071-1.184-21.737,20.988-21.737,20.988-.661,22.861,22.684,21.231,22.684,21.231l-11.213,18.488h8.669c18.422-22.696,22.629-37.681,22.629-37.681,0-23.583-21.032-23.026-21.032-23.026Zm-.232,34.035s-13.091-.892-12.562-12.584c0,0,1.14-13.802,12.562-12.375,0,0,11.477,.248,12.441,12.585,0,0,1.316,10.321-12.441,12.375Z" style="fill:#003893;"/><path d="M271.136,475.86h-8.878l-26.634,41.376v8.443h28.198v9.076h7.512v-9.076h6.312v-7.98h-6.51v-41.839Zm-7.71,41.839h-17.243v-3.261l17.243-25.416v28.677Z" style="fill:#003893;"/><path d="M317.398,501.387c6.73-4.263,5.562-11.219,5.562-11.219-1.134-17.056-16.373-15.426-16.373-15.426-17.238-.925-16.56,15.2-16.56,15.2-.677,9.302,5.628,12.38,5.628,12.38-8.641,3.706-8.156,15.85-8.156,15.85,1.602,19.424,19.622,18.741,19.622,18.741,19.353-1.223,18.642-19.215,18.642-19.215,.711-10.04-8.366-16.313-8.366-16.313Zm-10.811-19.413s7.76,1.162,7.507,8.646c0,0,.253,7.523-7.507,7.705,0,0-8.354-.05-7.633-7.974,0,0-1.421-7.215,7.633-8.377Zm0,47.434s-11.367-1.635-10.447-12.171c0,0,.187-10.282,10.249-10.056,0,0,9.808-.451,10.48,10.348,0,0,1.448,9.247-10.282,11.879Z" style="fill:#003893;"/></g><rect y="440.214" width="478.52" height="18.229" style="fill:#003893;"/></g></svg>